<svg xmlns="http://www.w3.org/2000/svg" viewBox="0 0 214 271" width="40" height="40">
    <path fill="#fff" d="M93.762 163.291L3.724 197.195c-7.17-6.695-2.67-14.695 2.483-17.828l16.845-15.828v-20.817c4.002-6.722 13.002-6.722 16.925 0v8.03l14.006-9.944v-26.087c2.071-5.721 13.96-5.297 15.747 0v10.895l22.06-20.654C91.79 42.5 91.79 0 107.554 0c15.765 0 14.842 41.073 14.432 105.634l19.432 16.337v-7.25c3.698-5.721 13.684-5.297 15.47 0v23.035l19.984 12.375v-9.323c3.682-5.808 10.631-4.871 12.982 0v21.228l21.482 16.117c3.718 7.347 1.718 12.347-4.684 15.502l-84.318-28.908.329 73.751 26.891 20.132c3.018 6.095-1.08 11.86-5.5 11.86l-36.5-14.49-34.276 14.49c-7.224-1.99-8.724-6.99-5.416-11.86l24.536-20.309 1.364-75.03z"/>
</svg>
